<svg width="18" height="16" viewBox="0 0 18 16" fill="none" xmlns="http://www.w3.org/2000/svg">
<path fill-rule="evenodd" clip-rule="evenodd" d="M12.6608 0.581055C15.2939 0.581055 17.2793 2.72938 17.2793 5.57826V11.0088C17.2793 12.4668 16.7638 13.7841 15.8268 14.7187C14.9863 15.5561 13.8959 15.9997 12.6735 15.9997H4.88274C3.66269 15.9997 2.57311 15.5569 1.73181 14.7187C0.794832 13.7841 0.279297 12.4668 0.279297 11.0088V5.57826C0.279297 2.72938 2.26474 0.581055 4.89776 0.581055H12.6608ZM12.6608 1.7671H4.89776C2.90916 1.7671 1.46534 3.36985 1.46534 5.57826V11.0088C1.46534 12.1498 1.85753 13.169 2.56916 13.8782C3.18274 14.491 3.98372 14.8136 4.88511 14.8136H12.6608C12.6624 14.812 12.6687 14.8136 12.6735 14.8136C13.5757 14.8136 14.3759 14.491 14.9894 13.8782C15.7019 13.169 16.0933 12.1498 16.0933 11.0088V5.57826C16.0933 3.36985 14.6494 1.7671 12.6608 1.7671ZM13.907 5.42708C14.1133 5.6809 14.0746 6.05411 13.8208 6.26127L10.3069 9.11727C9.86255 9.46992 9.3312 9.64625 8.80065 9.64625C8.27167 9.64625 7.74427 9.4715 7.30306 9.12201L3.75679 6.26285C3.50139 6.05727 3.46185 5.68327 3.66665 5.42866C3.87302 5.17485 4.24623 5.13452 4.50083 5.33931L8.04395 8.19532C8.48911 8.54797 9.11613 8.54797 9.56446 8.19215L13.072 5.3409C13.3266 5.13294 13.6998 5.17248 13.907 5.42708Z" fill="#888A8C"/>
</svg>
